<?xml version="1.0" standalone="no"?><!DOCTYPE svg PUBLIC "-//W3C//DTD SVG 1.1//EN" "http://www.w3.org/Graphics/SVG/1.1/DTD/svg11.dtd"><svg t="1688006978912" class="icon" viewBox="0 0 1024 1024" version="1.1" xmlns="http://www.w3.org/2000/svg" p-id="1756" xmlns:xlink="http://www.w3.org/1999/xlink" width="200" height="200"><path d="M707.2 827.1h-1.3c-24.4-85.8-82-125.1-82-125.1H400.2s-57.8 39.3-82 125.1h-1.4c-5.8 21.8-9.3 51.4-9.3 79h409c0-27.6-3.6-57.2-9.3-79z" fill="#F7867F" p-id="1757"></path><path d="M455.6 673h112.9v233.1H455.6z" fill="#64C4F6" p-id="1758"></path><path d="M249.7 470.5m-76.8 0a76.8 76.8 0 1 0 153.6 0 76.8 76.8 0 1 0-153.6 0Z" fill="#F7DBD0" p-id="1759"></path><path d="M774.3 470.5m-76.8 0a76.8 76.8 0 1 0 153.6 0 76.8 76.8 0 1 0-153.6 0Z" fill="#F7DBD0" p-id="1760"></path><path d="M455.4 707.2c16.5 28.5-15.6 72.1-59.4 97.4s-92.5 22.6-109-5.9 5.6-72.1 49.4-97.4 102.6-22.6 119 5.9zM568.6 707.2c-16.5 28.5 15.6 72.1 59.4 97.4s92.5 22.6 109-5.9-5.6-72.1-49.4-97.4-102.6-22.6-119 5.9z" fill="#FCE170" p-id="1761"></path><path d="M512 459.5m-269.3 0a269.3 269.3 0 1 0 538.6 0 269.3 269.3 0 1 0-538.6 0Z" fill="#FFECE3" p-id="1762"></path><path d="M813.6 407.5c-113.6-0.1-218.4-38.2-302.2-102.3-83.5 63.9-187.8 101.9-300.9 102.3 5.7-112.3 72.7-208.3 168.2-255.4 40.2-19.8 85.5-31 133.4-31 47.5 0 92.4 11 132.4 30.5 96 46.8 163.4 143.2 169.1 255.9z" fill="#FCE170" p-id="1763"></path><path d="M585.2 72.6c-17.9 15.1-44.5 13.8-60.9-3.3-2.3-2.5-4.4-5.2-6.2-8.1h-12.4c-14.1 23.8-46.1 29.1-67.1 11.4h-15.9v62.5H601.1V72.6h-15.9z" fill="#D79B89" p-id="1764"></path><path d="M512 31.5c-11.5 0-20.9 9.4-20.9 20.9 0 11.6 9.4 20.9 20.9 20.9 4.6 0 8.9-1.5 12.3-4 5.2-3.8 8.5-9.9 8.5-16.8 0.1-11.6-9.3-21-20.8-21z" fill="#AD6D5A" p-id="1765"></path><path d="M422.9 66.3m-20.9 0a20.9 20.9 0 1 0 41.8 0 20.9 20.9 0 1 0-41.8 0Z" fill="#AD6D5A" p-id="1766"></path><path d="M601.1 45.4c-15.2 0-25.3 15.7-19 29.5 3.3 7.2 10.6 12.2 19 12.2 11.5 0 20.9-9.4 20.9-20.9s-9.4-20.8-20.9-20.8z" fill="#AD6D5A" p-id="1767"></path><path d="M436.3 526.3c-7 0-12.7-5.7-12.7-12.7v-10.2c0-7 5.7-12.7 12.7-12.7s12.7 5.7 12.7 12.7v10.2c0 7.1-5.7 12.7-12.7 12.7zM587.7 526.3c-7 0-12.7-5.7-12.7-12.7v-10.2c0-7 5.7-12.7 12.7-12.7s12.7 5.7 12.7 12.7v10.2c0 7.1-5.7 12.7-12.7 12.7zM512 597.7c-16.4 0-31.9-7.1-42.7-19.4-4.6-5.3-4-13.3 1.2-17.9 5.3-4.6 13.3-4 17.9 1.2 6 6.8 14.6 10.8 23.6 10.8s17.6-3.9 23.6-10.7c4.6-5.3 12.6-5.8 17.9-1.2 5.3 4.6 5.8 12.6 1.2 17.9-10.8 12.2-26.3 19.3-42.7 19.3z" fill="#450064" p-id="1768"></path><path d="M823 398.7c-8.4-109.8-74.8-207.6-174.1-256.1-12.3-6-25-11.2-37.8-15.5V95.4c12.1-4.2 20.9-15.7 20.9-29.2 0-17-13.9-30.8-30.9-30.8-10.6 0-20.3 5.3-26 14.2-4 6.2-5.6 13.5-4.6 20.6-10.3 4.6-22.2 3.8-31.9-2.1 2.7-4.7 4.2-10 4.2-15.5 0.1-8.3-3.1-16.1-8.9-22-5.8-5.9-13.6-9.1-21.9-9.1-17 0-30.9 13.9-30.9 30.9 0 5.7 1.6 11 4.3 15.6-9.6 5.8-21.5 6.6-31.8 2.2 0.2-1.3 0.3-2.6 0.3-3.9 0-17-13.9-30.9-30.9-30.9s-31 13.9-31 30.9c0 13.5 8.7 24.9 20.7 29.2v31.9c-13 4.4-25.9 9.7-38.4 15.8-48.6 23.9-90.4 60.4-120.8 105.4-30.2 44.6-48.3 96.5-52.4 150.2-23.7 16.1-38.2 43.1-38.2 71.8 0 47.9 38.9 86.8 86.8 86.8h0.6c19.1 51 52.9 95.5 96.7 127.6-5.4 2.2-10.6 4.8-15.5 7.7-22.8 13.2-41 31.5-51.2 51.6-10.9 21.5-11.6 42.6-1.8 59.4 6.1 10.6 15.7 18.4 28.1 23.2-5.7 22.4-9.1 51.9-9.1 79.4 0 5.5 4.5 10 10 10h409c5.5 0 10-4.5 10-10 0-27.1-3.4-56.6-9.1-79.3 12.4-4.7 22.1-12.6 28.2-23.1 9.7-16.8 9.1-37.9-1.9-59.4-10.2-20.1-28.4-38.4-51.2-51.6-5-2.9-10.3-5.5-15.7-7.7 43.9-32.2 77.7-76.7 96.7-127.5h0.7c47.9 0 86.8-38.9 86.8-86.8 0.1-29-14.4-56.1-38-72.2zM591.9 60.4c2-3.2 5.4-5 9.2-5 6 0 10.9 4.8 10.9 10.8 0 6-4.9 10.9-10.9 10.9-4.2 0-8.1-2.5-9.9-6.4-1.6-3.4-1.3-7.1 0.7-10.3zM512 41.5c2.9 0 5.6 1.1 7.7 3.2 2 2.1 3.2 4.8 3.1 7.8 0 3.5-1.6 6.7-4.4 8.7-1.8 1.3-4.1 2.1-6.4 2.1-2.1 0-4.1-0.6-5.8-1.7-0.4-0.3-0.8-0.7-1.3-0.9-2.3-2-3.8-5-3.8-8.3 0-6 4.9-10.9 10.9-10.9z m-10.8 39.8c3.4 1.3 7 2 10.8 2 3.7 0 7.3-0.7 10.8-2 8.2 6.5 18.2 10.5 28.7 11.5 1.7 0.2 3.4 0.2 5.1 0.2 7.9 0 15.6-1.7 22.7-5 3.3 3.3 7.4 5.8 11.8 7.3V125H432.7V95.6c4.6-1.5 8.7-4.1 12-7.4 7.2 3.2 14.8 4.8 22.5 4.8 12.1 0 24.2-4 34-11.7z m-78.3-25.9c6 0 10.9 4.9 10.9 10.9s-4.9 10.9-10.9 10.9S412 72.3 412 66.3s4.9-10.9 10.9-10.9z m-39.8 105.7c12.9-6.3 26.2-11.7 39.6-16h179c13 4.2 25.9 9.4 38.5 15.5 92.1 45 153.9 135.2 162.7 236.8-8.6-0.2-17.3-0.6-26.1-1.3-11.7-0.9-23.3-2.2-35.7-4-80.9-12.1-158.2-44.9-223.6-94.9a10.2 10.2 0 0 0-12.2 0c-64.9 49.7-141.9 82.4-222.7 94.6-12 1.8-23.9 3.2-35.4 4-8.6 0.7-17.2 1.1-25.9 1.3 8.8-100.9 70.3-191 161.8-236zM182.9 470.5c0-20.9 10-40.6 26.5-53.2 0.4 0 0.7 0.1 1.1 0.1 8.5 0 17-0.2 25.5-0.7-2.2 14-3.3 28.4-3.3 42.8 0 26.4 3.7 52.4 10.9 77.5-34-3.1-60.7-31.7-60.7-66.5z m112.9 323.1c-6.2-10.8-5.4-25.1 2.4-40.4 8.5-16.7 23.9-32.1 43.4-43.4 8.1-4.7 16.9-8.4 26.3-11.1 8.3 5 17 9.7 26 13.8 17.6 8.2 36.2 14.6 55.1 19-0.6 2.6-1.4 5.3-2.6 8.2-8.1 19.7-29.3 41.2-55.2 56.1-22.9 13.3-48.7 18.7-68.9 14.7-8.7-1.8-20.4-6.1-26.5-16.9z m29.5 40.5c0.8-0.8 1.4-1.7 1.9-2.7 3 0.3 6 0.4 9.1 0.4 20.9 0 43.7-6.5 64.8-18.7 17.4-10 32.8-22.5 44.5-35.9v118.9H317.7c0.6-21.9 3.4-44.2 7.6-62z m140.3 62V745.3c1.3-3.4 2.2-6.7 2.9-9.9 14.4 2.3 29 3.4 43.4 3.4 14.8 0 29.4-1.2 43.6-3.4 0.7 3.2 1.7 6.5 2.9 9.9v150.8h-92.8z m112.8 0V777.2c11.7 13.4 27.1 25.9 44.5 35.9 21.2 12.2 44 18.7 64.9 18.7 3.1 0 6.1-0.1 9.1-0.4 0.4 0.9 1 1.8 1.7 2.5 4.3 18.1 7.1 40.5 7.7 62.2H578.4zM726 753.2c7.8 15.3 8.6 29.6 2.4 40.3-6.3 10.8-17.9 15.2-26.4 16.9-20.2 4.1-46-1.4-69-14.7-25.9-14.9-47.1-36.4-55.2-56.1-1.2-2.9-2-5.7-2.6-8.2 19-4.4 37.5-10.8 55-18.9 8.8-4.1 17.6-8.8 26-13.9 9.4 2.7 18.3 6.5 26.5 11.2 19.4 11.3 34.8 26.7 43.3 43.4z m-76.8-73.8c-8.9 5.6-18.1 10.6-27.5 15-17.6 8.2-36.3 14.5-55.5 18.6l-4.1 0.9c-31.8 6.4-66.4 6.6-100.2 0-0.2 0-0.3-0.1-0.5-0.1l-3.9-0.8c-19.1-4.1-37.7-10.3-55.4-18.6-9.3-4.3-18.3-9.2-26.8-14.5-0.4-0.3-0.9-0.6-1.4-0.9-50-31.4-88.1-79.5-107.3-135.3v-0.1c-9.3-27-14-55.3-14-84.2 0-14.9 1.3-29.8 3.8-44.3 9.6-0.9 19.3-2 29.1-3.5 81.7-12.4 159.6-44.8 225.8-94 66.8 49.4 145 82 226.7 94.2 10.1 1.5 19.8 2.7 29.4 3.5 2.5 14.4 3.7 29.1 3.7 44.1 0 28.8-4.7 57.2-14 84.2-19 56-57.4 104.2-107.9 135.8zM780.3 537c7.2-25.1 10.9-51.1 10.9-77.5 0-14.4-1.1-28.7-3.2-42.7 8.7 0.4 17.3 0.7 25.6 0.7 0.4 0 0.8 0 1.2-0.1 16.4 12.6 26.3 32.3 26.3 53.1 0 34.8-26.8 63.5-60.8 66.5z" fill="#450064" p-id="1769"></path></svg>